<?xml version="1.0" encoding="UTF-8"?>
<svg xmlns="http://www.w3.org/2000/svg" xmlns:xlink="http://www.w3.org/1999/xlink" width="20pt" height="20pt" viewBox="0 0 20 20" version="1.1">
<g id="surface1">
<path style=" stroke:none;fill-rule:nonzero;fill:rgb(0%,0%,0%);fill-opacity:1;" d="M 10 0 C 4.476562 0 0 4.476562 0 10 C 0 15.011719 3.691406 19.152344 8.503906 19.875 L 8.503906 12.648438 L 6.03125 12.648438 L 6.03125 10.023438 L 8.503906 10.023438 L 8.503906 8.273438 C 8.503906 5.375 9.914062 4.105469 12.324219 4.105469 C 13.476562 4.105469 14.085938 4.191406 14.375 4.230469 L 14.375 6.523438 L 12.730469 6.523438 C 11.710938 6.523438 11.351562 7.492188 11.351562 8.585938 L 11.351562 10.023438 L 14.347656 10.023438 L 13.941406 12.648438 L 11.351562 12.648438 L 11.351562 19.898438 C 16.234375 19.234375 20 15.0625 20 10 C 20 4.476562 15.523438 0 10 0 Z M 10 0 "/>
</g>
</svg>
