<?xml version="1.0" encoding="UTF-8"?>
<svg xmlns="http://www.w3.org/2000/svg" xmlns:xlink="http://www.w3.org/1999/xlink" width="20pt" height="20pt" viewBox="0 0 20 20" version="1.1">
<g id="surface1">
<path style=" stroke:none;fill-rule:nonzero;fill:rgb(0%,0%,0%);fill-opacity:1;" d="M 11.914062 10 C 11.914062 11.058594 11.058594 11.914062 10 11.914062 C 8.941406 11.914062 8.085938 11.058594 8.085938 10 C 8.085938 8.941406 8.941406 8.085938 10 8.085938 C 11.058594 8.085938 11.914062 8.941406 11.914062 10 Z M 11.914062 10 "/>
<path style=" stroke:none;fill-rule:nonzero;fill:rgb(0%,0%,0%);fill-opacity:1;" d="M 14.476562 6.613281 C 14.382812 6.363281 14.238281 6.136719 14.046875 5.953125 C 13.863281 5.761719 13.636719 5.617188 13.386719 5.523438 C 13.183594 5.445312 12.878906 5.351562 12.320312 5.324219 C 11.714844 5.296875 11.53125 5.292969 10 5.292969 C 8.464844 5.292969 8.285156 5.296875 7.679688 5.324219 C 7.121094 5.351562 6.816406 5.445312 6.613281 5.523438 C 6.363281 5.617188 6.136719 5.761719 5.953125 5.953125 C 5.761719 6.136719 5.617188 6.363281 5.523438 6.613281 C 5.445312 6.816406 5.351562 7.121094 5.324219 7.679688 C 5.296875 8.285156 5.292969 8.46875 5.292969 10 C 5.292969 11.535156 5.296875 11.714844 5.324219 12.320312 C 5.351562 12.878906 5.445312 13.183594 5.523438 13.386719 C 5.617188 13.636719 5.761719 13.863281 5.953125 14.046875 C 6.136719 14.238281 6.363281 14.382812 6.613281 14.476562 C 6.816406 14.554688 7.121094 14.648438 7.679688 14.675781 C 8.285156 14.703125 8.464844 14.707031 10 14.707031 C 11.535156 14.707031 11.714844 14.703125 12.320312 14.675781 C 12.878906 14.648438 13.183594 14.554688 13.386719 14.476562 C 13.886719 14.285156 14.28125 13.886719 14.476562 13.386719 C 14.554688 13.183594 14.648438 12.878906 14.675781 12.320312 C 14.703125 11.714844 14.707031 11.535156 14.707031 10 C 14.707031 8.46875 14.703125 8.285156 14.675781 7.679688 C 14.648438 7.121094 14.554688 6.816406 14.476562 6.613281 Z M 10 12.949219 C 8.371094 12.949219 7.050781 11.628906 7.050781 10 C 7.050781 8.371094 8.371094 7.050781 10 7.050781 C 11.628906 7.050781 12.949219 8.371094 12.949219 10 C 12.949219 11.628906 11.628906 12.949219 10 12.949219 Z M 13.066406 7.625 C 12.683594 7.625 12.375 7.316406 12.375 6.933594 C 12.375 6.554688 12.683594 6.246094 13.066406 6.246094 C 13.445312 6.246094 13.753906 6.554688 13.753906 6.933594 C 13.753906 7.316406 13.445312 7.625 13.066406 7.625 Z M 13.066406 7.625 "/>
<path style=" stroke:none;fill-rule:nonzero;fill:rgb(0%,0%,0%);fill-opacity:1;" d="M 10 0 C 4.476562 0 0 4.476562 0 10 C 0 15.523438 4.476562 20 10 20 C 15.523438 20 20 15.523438 20 10 C 20 4.476562 15.523438 0 10 0 Z M 15.707031 12.367188 C 15.679688 12.980469 15.582031 13.394531 15.441406 13.761719 C 15.140625 14.53125 14.53125 15.140625 13.761719 15.441406 C 13.394531 15.582031 12.980469 15.679688 12.367188 15.707031 C 11.753906 15.734375 11.558594 15.742188 10 15.742188 C 8.441406 15.742188 8.246094 15.734375 7.632812 15.707031 C 7.023438 15.679688 6.605469 15.582031 6.238281 15.441406 C 5.855469 15.296875 5.507812 15.070312 5.222656 14.777344 C 4.929688 14.492188 4.703125 14.144531 4.558594 13.761719 C 4.417969 13.394531 4.320312 12.980469 4.292969 12.367188 C 4.265625 11.753906 4.257812 11.558594 4.257812 10 C 4.257812 8.441406 4.265625 8.246094 4.292969 7.632812 C 4.320312 7.019531 4.417969 6.605469 4.558594 6.238281 C 4.703125 5.855469 4.929688 5.507812 5.222656 5.222656 C 5.507812 4.929688 5.855469 4.703125 6.238281 4.558594 C 6.605469 4.417969 7.019531 4.320312 7.632812 4.292969 C 8.246094 4.265625 8.441406 4.257812 10 4.257812 C 11.558594 4.257812 11.753906 4.265625 12.367188 4.292969 C 12.980469 4.320312 13.394531 4.417969 13.761719 4.558594 C 14.144531 4.703125 14.492188 4.929688 14.777344 5.222656 C 15.070312 5.507812 15.296875 5.855469 15.441406 6.238281 C 15.582031 6.605469 15.679688 7.019531 15.707031 7.632812 C 15.734375 8.246094 15.742188 8.441406 15.742188 10 C 15.742188 11.558594 15.734375 11.753906 15.707031 12.367188 Z M 15.707031 12.367188 "/>
</g>
</svg>
