<?xml version="1.0" encoding="UTF-8"?>
<svg xmlns="http://www.w3.org/2000/svg" xmlns:xlink="http://www.w3.org/1999/xlink" width="20pt" height="20pt" viewBox="0 0 20 20" version="1.1">
<g id="surface1">
<path style=" stroke:none;fill-rule:nonzero;fill:rgb(0%,0%,0%);fill-opacity:1;" d="M 17.070312 2.929688 C 15.183594 1.039062 12.671875 0 10 0 C 7.328125 0 4.816406 1.039062 2.929688 2.929688 C 1.039062 4.816406 0 7.328125 0 10 C 0 12.671875 1.039062 15.183594 2.929688 17.070312 C 4.816406 18.960938 7.328125 20 10 20 C 12.671875 20 15.183594 18.960938 17.070312 17.070312 C 18.960938 15.183594 20 12.671875 20 10 C 20 7.328125 18.960938 4.816406 17.070312 2.929688 Z M 18.082031 6.4375 L 16.359375 6.4375 C 16.109375 5.574219 15.324219 4.941406 14.386719 4.921875 C 13.847656 3.523438 13.101562 2.351562 12.179688 1.441406 C 13.703125 1.828125 15.101562 2.617188 16.242188 3.757812 C 17.027344 4.542969 17.648438 5.449219 18.082031 6.4375 Z M 18.828125 10 C 18.828125 10.820312 18.71875 11.621094 18.5 12.390625 L 15.101562 12.390625 C 15.285156 11.261719 15.335938 10.085938 15.253906 8.917969 C 15.785156 8.660156 16.191406 8.183594 16.359375 7.609375 L 18.5 7.609375 C 18.71875 8.378906 18.828125 9.179688 18.828125 10 Z M 3.066406 12.390625 L 1.5 12.390625 C 1.28125 11.621094 1.171875 10.820312 1.171875 10 C 1.171875 9.179688 1.28125 8.378906 1.5 7.609375 L 4.898438 7.609375 C 4.746094 8.566406 4.683594 9.558594 4.71875 10.550781 C 3.902344 10.847656 3.273438 11.539062 3.066406 12.390625 Z M 14.339844 7.953125 C 13.828125 7.953125 13.410156 7.535156 13.410156 7.023438 C 13.410156 6.511719 13.828125 6.09375 14.339844 6.09375 C 14.855469 6.09375 15.273438 6.511719 15.273438 7.023438 C 15.273438 7.535156 14.855469 7.953125 14.339844 7.953125 Z M 12.324219 6.4375 L 10.585938 6.4375 L 10.585938 1.625 C 11.945312 2.601562 12.761719 4.011719 13.246094 5.230469 C 12.804688 5.5 12.472656 5.929688 12.324219 6.4375 Z M 9.414062 1.625 L 9.414062 6.4375 L 6.347656 6.4375 C 6.480469 5.960938 6.636719 5.503906 6.820312 5.066406 C 7.4375 3.585938 8.324219 2.414062 9.414062 1.625 Z M 9.414062 7.609375 L 9.414062 12.390625 L 8.152344 12.390625 C 7.894531 11.332031 6.992188 10.523438 5.886719 10.40625 C 5.859375 9.460938 5.925781 8.515625 6.085938 7.609375 Z M 5.609375 11.566406 C 6.40625 11.566406 7.054688 12.214844 7.054688 13.011719 C 7.054688 13.808594 6.40625 14.457031 5.609375 14.457031 C 4.8125 14.457031 4.164062 13.808594 4.164062 13.011719 C 4.164062 12.214844 4.8125 11.566406 5.609375 11.566406 Z M 8.167969 13.5625 L 9.414062 13.5625 L 9.414062 18.382812 C 8.378906 17.648438 7.554688 16.601562 6.953125 15.253906 C 7.5625 14.886719 8.011719 14.28125 8.167969 13.5625 Z M 10.585938 18.375 L 10.585938 13.5625 L 13.652344 13.5625 C 13.542969 13.960938 13.414062 14.34375 13.269531 14.714844 C 12.644531 16.304688 11.726562 17.550781 10.585938 18.375 Z M 10.585938 12.390625 L 10.585938 7.609375 L 12.324219 7.609375 C 12.554688 8.40625 13.246094 9.007812 14.09375 9.109375 C 14.164062 10.21875 14.101562 11.328125 13.914062 12.390625 Z M 3.757812 3.757812 C 4.898438 2.617188 6.300781 1.824219 7.824219 1.441406 C 6.972656 2.28125 6.265625 3.351562 5.738281 4.613281 C 5.496094 5.191406 5.296875 5.800781 5.136719 6.4375 L 1.917969 6.4375 C 2.351562 5.449219 2.972656 4.542969 3.757812 3.757812 Z M 1.917969 13.5625 L 3.050781 13.5625 C 3.304688 14.742188 4.355469 15.628906 5.609375 15.628906 C 5.683594 15.628906 5.757812 15.625 5.832031 15.617188 C 6.339844 16.785156 6.996094 17.765625 7.796875 18.550781 C 6.28125 18.164062 4.890625 17.375 3.757812 16.242188 C 2.972656 15.457031 2.351562 14.550781 1.917969 13.5625 Z M 16.242188 16.242188 C 15.101562 17.382812 13.703125 18.175781 12.175781 18.558594 C 13.082031 17.664062 13.824219 16.511719 14.359375 15.144531 C 14.558594 14.636719 14.726562 14.109375 14.863281 13.5625 L 18.082031 13.5625 C 17.648438 14.550781 17.027344 15.457031 16.242188 16.242188 Z M 16.242188 16.242188 "/>
</g>
</svg>
