<?xml version="1.0" encoding="UTF-8"?>
<svg xmlns="http://www.w3.org/2000/svg" xmlns:xlink="http://www.w3.org/1999/xlink" width="20pt" height="20pt" viewBox="0 0 20 20" version="1.1">
<g id="surface1">
<path style=" stroke:none;fill-rule:nonzero;fill:rgb(0%,0%,0%);fill-opacity:1;" d="M 9.972656 0 C 4.464844 0 0 4.464844 0 9.972656 C 0 15.484375 4.464844 19.949219 9.972656 19.949219 C 15.484375 19.949219 19.949219 15.484375 19.949219 9.972656 C 19.949219 4.464844 15.484375 0 9.972656 0 Z M 11.121094 13.289062 C 10.199219 13.289062 9.332031 12.789062 9.035156 12.222656 C 9.035156 12.222656 8.539062 14.191406 8.433594 14.570312 C 8.0625 15.914062 6.976562 17.257812 6.890625 17.367188 C 6.832031 17.441406 6.703125 17.417969 6.6875 17.316406 C 6.664062 17.148438 6.386719 15.453125 6.714844 14.070312 C 6.878906 13.378906 7.8125 9.414062 7.8125 9.414062 C 7.8125 9.414062 7.539062 8.871094 7.539062 8.0625 C 7.539062 6.796875 8.273438 5.851562 9.1875 5.851562 C 9.964844 5.851562 10.339844 6.433594 10.339844 7.132812 C 10.339844 7.914062 9.84375 9.082031 9.585938 10.167969 C 9.371094 11.074219 10.039062 11.8125 10.933594 11.8125 C 12.554688 11.8125 13.644531 9.734375 13.644531 7.269531 C 13.644531 5.398438 12.382812 3.996094 10.089844 3.996094 C 7.496094 3.996094 5.882812 5.925781 5.882812 8.085938 C 5.882812 8.832031 6.101562 9.355469 6.445312 9.761719 C 6.601562 9.949219 6.625 10.023438 6.566406 10.238281 C 6.527344 10.394531 6.433594 10.773438 6.394531 10.921875 C 6.335938 11.140625 6.160156 11.21875 5.964844 11.136719 C 4.773438 10.652344 4.214844 9.34375 4.214844 7.875 C 4.214844 5.445312 6.261719 2.535156 10.324219 2.535156 C 13.585938 2.535156 15.730469 4.898438 15.730469 7.429688 C 15.734375 10.785156 13.867188 13.289062 11.121094 13.289062 Z M 11.121094 13.289062 "/>
</g>
</svg>
