<?xml version="1.0" encoding="UTF-8"?>
<svg xmlns="http://www.w3.org/2000/svg" xmlns:xlink="http://www.w3.org/1999/xlink" width="20pt" height="20pt" viewBox="0 0 20 20" version="1.1">
<g id="surface1">
<path style=" stroke:none;fill-rule:nonzero;fill:rgb(0%,0%,0%);fill-opacity:1;" d="M 10 0 C 4.476562 0 0 4.476562 0 10 C 0 15.523438 4.476562 20 10 20 C 15.523438 20 20 15.523438 20 10 C 20 4.476562 15.523438 0 10 0 Z M 14.566406 7.796875 C 14.570312 7.894531 14.574219 7.996094 14.574219 8.09375 C 14.574219 11.125 12.265625 14.625 8.042969 14.625 C 6.746094 14.625 5.539062 14.246094 4.523438 13.59375 C 4.703125 13.613281 4.886719 13.625 5.070312 13.625 C 6.148438 13.625 7.136719 13.257812 7.921875 12.640625 C 6.917969 12.625 6.070312 11.960938 5.777344 11.046875 C 5.917969 11.074219 6.0625 11.089844 6.207031 11.089844 C 6.417969 11.089844 6.621094 11.0625 6.8125 11.007812 C 5.765625 10.796875 4.972656 9.871094 4.972656 8.757812 C 4.972656 8.75 4.972656 8.738281 4.972656 8.730469 C 5.28125 8.902344 5.636719 9.003906 6.011719 9.015625 C 5.394531 8.605469 4.992188 7.902344 4.992188 7.105469 C 4.992188 6.683594 5.105469 6.292969 5.300781 5.953125 C 6.433594 7.339844 8.125 8.253906 10.035156 8.351562 C 9.992188 8.183594 9.972656 8.007812 9.972656 7.828125 C 9.972656 6.558594 11 5.53125 12.269531 5.53125 C 12.929688 5.53125 13.527344 5.8125 13.945312 6.257812 C 14.46875 6.152344 14.957031 5.964844 15.402344 5.699219 C 15.230469 6.234375 14.867188 6.683594 14.394531 6.96875 C 14.855469 6.914062 15.300781 6.792969 15.710938 6.609375 C 15.402344 7.070312 15.015625 7.472656 14.566406 7.796875 Z M 14.566406 7.796875 "/>
</g>
</svg>
